<!-- This file is part of Zotero. It is distributed under the GNU Affero General Public License version 3. -->
<svg xmlns="http://www.w3.org/2000/svg" xmlns:xlink="http://www.w3.org/1999/xlink">
	<symbol id="bill" viewBox="0 0 16 16">
		<path d="M12.5,9c0-2-2.037-2.718-3.835-3.347C6.753,4.984,5.5,4.455,5.5,3.25,5.5,2.187,6.481,1.5,8,1.5s2.5.785,2.5,2h1c0-1.794-1.406-3-3.5-3S4.5,1.605,4.5,3.25A2.361,2.361,0,0,0,4.982,4.7,2.512,2.512,0,0,0,3.5,7c0,2.005,2.037,2.718,3.835,3.347,1.912.67,3.165,1.2,3.165,2.4,0,1.063-.981,1.75-2.5,1.75s-2.5-.785-2.5-2h-1c0,1.794,1.406,3,3.5,3s3.5-1.105,3.5-2.75a2.357,2.357,0,0,0-.478-1.445A2.521,2.521,0,0,0,12.5,9Zm-2.268,1.546A11.173,11.173,0,0,0,7.665,9.4C5.753,8.733,4.5,8.205,4.5,7A1.643,1.643,0,0,1,5.757,5.447,11.131,11.131,0,0,0,8.335,6.6C10.247,7.266,11.5,7.8,11.5,9A1.649,1.649,0,0,1,10.232,10.546Z" fill="#cc9200"/>
	</symbol>
	<symbol id="bill-white">
		<path d="M12.5,9c0-2-2.037-2.718-3.835-3.347C6.753,4.984,5.5,4.455,5.5,3.25,5.5,2.187,6.481,1.5,8,1.5s2.5.785,2.5,2h1c0-1.794-1.406-3-3.5-3S4.5,1.605,4.5,3.25A2.361,2.361,0,0,0,4.982,4.7,2.512,2.512,0,0,0,3.5,7c0,2.005,2.037,2.718,3.835,3.347,1.912.67,3.165,1.2,3.165,2.4,0,1.063-.981,1.75-2.5,1.75s-2.5-.785-2.5-2h-1c0,1.794,1.406,3,3.5,3s3.5-1.105,3.5-2.75a2.357,2.357,0,0,0-.478-1.445A2.521,2.521,0,0,0,12.5,9Zm-2.268,1.546A11.173,11.173,0,0,0,7.665,9.4C5.753,8.733,4.5,8.205,4.5,7A1.643,1.643,0,0,1,5.757,5.447,11.131,11.131,0,0,0,8.335,6.6C10.247,7.266,11.5,7.8,11.5,9A1.649,1.649,0,0,1,10.232,10.546Z" fill="#fff"/>
	</symbol>
	<use xlink:href="#bill" viewBox="0 0 16 16"/>
</svg>
