<!-- This file is part of Zotero. It is distributed under the GNU Affero General Public License version 3. -->
<svg xmlns="http://www.w3.org/2000/svg" xmlns:xlink="http://www.w3.org/1999/xlink">
	<symbol id="book-section" viewBox="0 0 16 16">
		<path d="M7.938,1.872l-.219-.149C6.789,1.092,4.3.607,1.516.517L1,.5v13l.485.015a19.589,19.589,0,0,1,5.839.914L8,14.684V2.179Z" fill="#b3c7f5"/>
		<path d="M8.062,1.872l.219-.149c.93-.631,3.423-1.116,6.2-1.206L15,.5v13l-.485.015a19.589,19.589,0,0,0-5.839.914L8,14.684V2.179Z" fill="#fff"/>
		<path d="M8,1.309C6.874.546,3.946,0,.5,0V14a19.2,19.2,0,0,1,7,1.036,3.522,3.522,0,0,1,.5.273,3.522,3.522,0,0,1,.5-.273A19.2,19.2,0,0,1,15.5,14V0C12.054,0,9.126.546,8,1.309ZM7.5,13.961a19.931,19.931,0,0,0-6-.946v-12c2.961.1,5.188.612,5.939,1.121l.061.042Zm7-.946a19.931,19.931,0,0,0-6,.946V2.179l.061-.042c.751-.509,2.978-1.024,5.939-1.121Z" fill="#4072e5"/>
		<path d="M13.5,4.066a18.677,18.677,0,0,0-4,.645V3.67a20.894,20.894,0,0,1,4-.6Zm0,2a18.6,18.6,0,0,0-4,.646V5.671a20.809,20.809,0,0,1,4-.6Zm0,4a18.6,18.6,0,0,0-4,.646V9.671a20.809,20.809,0,0,1,4-.6Zm0-2a18.6,18.6,0,0,0-4,.646V7.671a20.809,20.809,0,0,1,4-.6Z" fill="#444"/>
	</symbol>
	<symbol id="book-section-white">
		<path d="M7.938,1.872l-.219-.149C6.789,1.092,4.3.607,1.516.517L1,.5v13l.485.015a19.589,19.589,0,0,1,5.839.914L8,14.684V2.179Z" fill="#fff" opacity="0.4"/>
		<path d="M13.5,4.066a18.677,18.677,0,0,0-4,.645V3.67a20.894,20.894,0,0,1,4-.6Zm0,2a18.6,18.6,0,0,0-4,.646V5.671a20.809,20.809,0,0,1,4-.6Zm0,4a18.6,18.6,0,0,0-4,.646V9.671a20.809,20.809,0,0,1,4-.6Zm0-2a18.6,18.6,0,0,0-4,.646V7.671a20.809,20.809,0,0,1,4-.6Z" fill="#fff"/>
		<path d="M8,1.309C6.874.546,3.946,0,.5,0V14a19.2,19.2,0,0,1,7,1.036,3.522,3.522,0,0,1,.5.273,3.522,3.522,0,0,1,.5-.273A19.2,19.2,0,0,1,15.5,14V0C12.054,0,9.126.546,8,1.309ZM7.5,13.961a19.931,19.931,0,0,0-6-.946v-12c2.961.1,5.188.612,5.939,1.121l.061.042Zm7-.946a19.931,19.931,0,0,0-6,.946V2.179l.061-.042c.751-.509,2.978-1.024,5.939-1.121Z" fill="#fff"/>
	</symbol>
	<use xlink:href="#book-section" viewBox="0 0 16 16"/>
</svg>
