<!-- This file is part of Zotero. It is distributed under the GNU Affero General Public License version 3. -->
<svg xmlns="http://www.w3.org/2000/svg" xmlns:xlink="http://www.w3.org/1999/xlink">
	<symbol id="case" viewBox="0 0 16 16">
		<path d="M5,11H1a.5.5,0,0,1-.481-.637l2-7a.5.5,0,0,1,.962,0l2,7A.5.5,0,0,1,5,11ZM1.663,10H4.337L3,5.32ZM15,11H11a.5.5,0,0,1-.481-.637l2-7a.5.5,0,0,1,.962,0l2,7A.5.5,0,0,1,15,11Zm-3.337-1h2.674L13,5.32Z" fill="#fff" opacity="0.5"/>
		<path d="M5,11H1a.5.5,0,0,1-.481-.637l2-7a.5.5,0,0,1,.962,0l2,7A.5.5,0,0,1,5,11ZM1.663,10H4.337L3,5.32ZM15,11H11a.5.5,0,0,1-.481-.637l2-7a.5.5,0,0,1,.962,0l2,7A.5.5,0,0,1,15,11Zm-3.337-1h2.674L13,5.32Z" opacity="0.2"/>
		<path d="M5,10.5a1.763,1.763,0,0,1-2,2,1.763,1.763,0,0,1-2-2Z" fill="#ebd399"/>
		<path d="M15,10.5a1.763,1.763,0,0,1-2,2,1.763,1.763,0,0,1-2-2Z" fill="#ebd399"/>
		<path d="M13.5,2.5A.5.5,0,0,1,13,3H3A.5.5,0,0,1,3,2H7.5V.5a.5.5,0,0,1,1,0V2H13A.5.5,0,0,1,13.5,2.5ZM11,15H9.5a1,1,0,0,0-1-1V4h-1V14a1,1,0,0,0-1,1H5a.5.5,0,0,0,0,1h6a.5.5,0,0,0,0-1ZM5.5,10.5A.5.5,0,0,0,5,10H1a.5.5,0,0,0-.5.5A2.255,2.255,0,0,0,3,13,2.255,2.255,0,0,0,5.5,10.5ZM4.459,11C4.33,11.7,3.88,12,3,12s-1.33-.3-1.459-1ZM15.5,10.5A.5.5,0,0,0,15,10H11a.5.5,0,0,0-.5.5A2.255,2.255,0,0,0,13,13,2.255,2.255,0,0,0,15.5,10.5Zm-1.041.5c-.129.7-.579,1-1.459,1s-1.33-.3-1.459-1Z" fill="#cc9200"/>
	</symbol>
	<symbol id="case-white">
		<path d="M5,10.5a1.763,1.763,0,0,1-2,2,1.763,1.763,0,0,1-2-2Zm6,0a1.763,1.763,0,0,0,2,2,1.763,1.763,0,0,0,2-2Z" fill="#fff" opacity="0.4"/>
		<path d="M15.483,10.417a.487.487,0,0,0,0-.054l-2-7a.5.5,0,0,0-.962,0l-2,7a.487.487,0,0,0,0,.054.47.47,0,0,0-.017.083A2.255,2.255,0,0,0,13,13a2.255,2.255,0,0,0,2.5-2.5A.47.47,0,0,0,15.483,10.417ZM13,5.32,14.337,10H11.663ZM13,12c-.88,0-1.33-.3-1.459-1h2.918C14.33,11.7,13.88,12,13,12ZM5.5,10.5a.452.452,0,0,0-.017-.083.478.478,0,0,0,0-.054l-2-7a.5.5,0,0,0-.962,0l-2,7c-.005.018,0,.037,0,.055A.566.566,0,0,0,.5,10.5,2.255,2.255,0,0,0,3,13,2.255,2.255,0,0,0,5.5,10.5ZM3,5.32,4.337,10H1.663ZM3,12c-.88,0-1.33-.3-1.459-1H4.459C4.33,11.7,3.88,12,3,12ZM13,3H3A.5.5,0,0,1,3,2H7.5V.5a.5.5,0,0,1,1,0V2H13a.5.5,0,0,1,0,1ZM11.5,15.5a.5.5,0,0,1-.5.5H5a.5.5,0,0,1,0-1H6.5a1,1,0,0,1,1-1V4h1V14a1,1,0,0,1,1,1H11A.5.5,0,0,1,11.5,15.5Z" fill="#fff"/>
	</symbol>
	<use xlink:href="#case" viewBox="0 0 16 16"/>
</svg>
