<!-- This file is part of Zotero. It is distributed under the GNU Affero General Public License version 3. -->
<svg xmlns="http://www.w3.org/2000/svg" xmlns:xlink="http://www.w3.org/1999/xlink">
	<symbol id="dictionary-entry" viewBox="0 0 16 16">
		<polygon points="9.707 0 1.5 0 1.5 16 14.5 16 14.5 4.793 9.707 0 9.707 0" fill="#fff" opacity="0.5"/>
		<polyline points="9.293 1 13.5 5.207 13.5 15 2.5 15 2.5 1 9.293 1" fill="#fff"/>
		<path d="M9.707,0H1.5V16h13V4.793ZM10,1.707,12.793,4.5H10ZM2.5,15V1H9V5.5h4.5V15Z" opacity="0.2"/>
		<polygon points="10 1.707 10 4.5 12.793 4.5 10 1.707" opacity="0.08"/>
		<path d="M11.536,13,8.843,6H7.157L4.464,13H3.5v1h3V13H5.536l.384-1h4.16l.384,1H9.5v1h3V13ZM6.305,11,7.843,7h.314L9.7,11Z" fill="#db2c3a"/>
	</symbol>
	<symbol id="dictionary-entry-white">
		<g opacity="0.4">
			<polygon points="10 0.5 10 4.5 14 4.5 10 0.5" fill="#fff"/>
		</g>
		<path d="M11.536,13,8.843,6H7.157L4.464,13H3.5v1h3V13H5.536l.384-1h4.16l.384,1H9.5v1h3V13ZM6.305,11,7.843,7h.314L9.7,11Z" fill="#fff"/>
		<path d="M10.207,0H1.5V16h13V4.293ZM10.5,1.707,12.793,4H10.5ZM13.5,15H2.5V1h7V5h4Z" fill="#fff"/>
	</symbol>
	<use xlink:href="#dictionary-entry" viewBox="0 0 16 16"/>
</svg>
