<!-- This file is part of Zotero. It is distributed under the GNU Affero General Public License version 3. -->
<svg xmlns="http://www.w3.org/2000/svg" xmlns:xlink="http://www.w3.org/1999/xlink">
	<symbol id="email" viewBox="0 0 16 16">
		<path d="M10,5V6A2.806,2.806,0,0,0,7.875,5,2.939,2.939,0,0,0,5,8a2.939,2.939,0,0,0,2.875,3,2.827,2.827,0,0,0,2.316-1.237A2.57,2.57,0,0,0,12.5,11,3.779,3.779,0,0,0,16,7c0-3.859-3.589-7-8-7a8,8,0,1,0,5.334,13.951l-.668-.744A7,7,0,1,1,8,1c3.86,0,7,2.691,7,6a2.788,2.788,0,0,1-2.5,3c-.813,0-1.5-.458-1.5-1V5ZM8,10a2,2,0,1,1,2-2A2,2,0,0,1,8,10Z" fill="#f66"/>
	</symbol>
	<symbol id="email-white">
		<path d="M10,5V6A2.806,2.806,0,0,0,7.875,5,2.939,2.939,0,0,0,5,8a2.939,2.939,0,0,0,2.875,3,2.827,2.827,0,0,0,2.316-1.237A2.57,2.57,0,0,0,12.5,11,3.779,3.779,0,0,0,16,7c0-3.859-3.589-7-8-7a8,8,0,1,0,5.334,13.951l-.668-.744A7,7,0,1,1,8,1c3.86,0,7,2.691,7,6a2.788,2.788,0,0,1-2.5,3c-.813,0-1.5-.458-1.5-1V5ZM8,10a2,2,0,1,1,2-2A2,2,0,0,1,8,10Z" fill="#fff"/>
	</symbol>
	<use xlink:href="#email" viewBox="0 0 16 16"/>
</svg>
