<!-- This file is part of Zotero. It is distributed under the GNU Affero General Public License version 3. -->
<svg xmlns="http://www.w3.org/2000/svg" xmlns:xlink="http://www.w3.org/1999/xlink">
	<symbol id="encyclopedia-article" viewBox="0 0 16 16">
		<path d="M15,1V14a19,19,0,0,0-6.707,1.077c-.1.047-.2.1-.293.145-.091-.049-.189-.1-.293-.145A19,19,0,0,0,1,14V1c3.456.053,5.89.657,6.719,1.219L8,2.414l.281-.191C9.11,1.661,11.544,1.057,15,1" fill="#fff"/>
		<path d="M3.5,1.657a18.559,18.559,0,0,1,2,.312v8.672l-.449-.3-.409-.27-.464.158-.678.23V1.657" fill="#db2c3a" opacity="0.4"/>
		<path d="M8,1.809a5.51,5.51,0,0,0-1.5-.621v1.04a3.866,3.866,0,0,1,.939.409l.061.042V14.461a19.931,19.931,0,0,0-6-.946v-12c.344.012.677.03,1,.051v-1C1.858.528,1.194.5.5.5v14a19.2,19.2,0,0,1,7,1.036,3.522,3.522,0,0,1,.5.273,3.522,3.522,0,0,1,.5-.273,19.2,19.2,0,0,1,7-1.036V.5C12.054.5,9.126,1.046,8,1.809Zm6.5,11.706a19.931,19.931,0,0,0-6,.946V2.679l.061-.042c.751-.509,2.978-1.024,5.939-1.121Z" fill="#4072e5"/>
		<path d="M2.5.569v11.29l2-.68,2,1.321V1.188A19.67,19.67,0,0,0,2.5.569Zm3,10.072-.449-.3-.409-.27-.464.158-.678.23V1.657a18.559,18.559,0,0,1,2,.312Z" fill="#db2c3a"/>
	</symbol>
	<symbol id="encyclopedia-article-white">
		<path d="M3.5,1.657a18.559,18.559,0,0,1,2,.312v8.672l-.449-.3-.409-.27-.464.158-.678.23V1.657" fill="#fff" opacity="0.4"/>
		<path d="M8,1.809C6.874,1.046,3.946.5.5.5v14a19.2,19.2,0,0,1,7,1.036,3.522,3.522,0,0,1,.5.273,3.522,3.522,0,0,1,.5-.273,19.2,19.2,0,0,1,7-1.036V.5C12.054.5,9.126,1.046,8,1.809Zm-2.5.16v8.672l-.449-.3-.409-.27-.464.158-.678.23V1.657A18.559,18.559,0,0,1,5.5,1.969Zm2,12.492a19.931,19.931,0,0,0-6-.946v-12c.344.012.677.03,1,.051V11.859l2-.68,2,1.321V2.228a3.866,3.866,0,0,1,.939.409l.061.042Zm7-.946a19.931,19.931,0,0,0-6,.946V2.679l.061-.042c.751-.509,2.978-1.024,5.939-1.121Z" fill="#fff"/>
	</symbol>
	<use xlink:href="#encyclopedia-article" viewBox="0 0 16 16"/>
</svg>
