<!-- This file is part of Zotero. It is distributed under the GNU Affero General Public License version 3. -->
<svg xmlns="http://www.w3.org/2000/svg" xmlns:xlink="http://www.w3.org/1999/xlink">
	<symbol id="hearing" viewBox="0 0 16 16">
		<path d="M1.5,14.5a1,1,0,0,1-.707-1.707l7.2-6.8L9.011,7.011,2.2,14.217A.985.985,0,0,1,1.5,14.5Zm14,1a1.762,1.762,0,0,0-2-2h-4a1.762,1.762,0,0,0-2,2Z" fill="#d6c4c5"/>
		<path d="M7.98,6.688l.333.333L1.854,13.854a.5.5,0,0,1-.728-.688L7.98,6.688M8,5.293.439,12.439a1.5,1.5,0,0,0,2.122,2.122L9.708,7,8,5.293Z" fill="#996b6f"/>
		<rect x="5.758" y="2.879" width="8.485" height="4.243" rx="0.5" transform="translate(6.464 -5.607) rotate(45)" fill="#d6c4c5"/>
		<path d="M15.5,16h-8a.5.5,0,0,1-.5-.5A2.255,2.255,0,0,1,9.5,13h4A2.255,2.255,0,0,1,16,15.5.5.5,0,0,1,15.5,16ZM8.041,15h6.918c-.129-.7-.579-1-1.459-1h-4C8.62,14,8.17,14.3,8.041,15Z" fill="#996b6f"/>
		<rect x="7.879" y="2.172" width="4.243" height="5.657" transform="translate(-0.607 8.536) rotate(-45)" fill="#ebd399"/>
		<path d="M13.146,5.854l-4-4,.707-.708,4,4ZM10.853,8.146l-4-4-.707.708,4,4Z" fill="#cc9200"/>
		<path d="M14.5,5.793,14.207,5.5l.147-.146a.5.5,0,0,0-.708-.708l-4,4a.5.5,0,0,0,.708.708l.146-.147.293.293a1,1,0,0,0,1.414,0L14.5,7.207A1,1,0,0,0,14.5,5.793Zm-3,3h0L11.207,8.5,13.5,6.207l.293.293ZM10.354.646a.5.5,0,0,0-.708,0L9.5.793,9.207.5A1,1,0,0,0,7.793.5L5.5,2.793a1,1,0,0,0,0,1.414l.293.293-.147.146a.5.5,0,0,0,.708.708l4-4A.5.5,0,0,0,10.354.646ZM6.5,3.793,6.207,3.5,8.5,1.207l.293.293Z" fill="#996b6f"/>
	</symbol>
	<symbol id="hearing-white">
		<path d="M15.5,15.5a1.762,1.762,0,0,0-2-2h-4a1.762,1.762,0,0,0-2,2ZM11.146,9.146a.5.5,0,0,0,.707,0l2.293-2.293a.5.5,0,0,0,0-.707L8.854.854a.5.5,0,0,0-.707,0L5.854,3.147a.5.5,0,0,0,0,.707L7.99,5.99l-7.2,6.8A1,1,0,0,0,1.5,14.5a.985.985,0,0,0,.7-.283L9.011,7.011Z" fill="#fff" opacity="0.4"/>
		<path d="M13.5,13h-4A2.255,2.255,0,0,0,7,15.5a.5.5,0,0,0,.5.5h8a.5.5,0,0,0,.5-.5A2.255,2.255,0,0,0,13.5,13ZM8.041,15c.129-.7.579-1,1.459-1h4c.88,0,1.33.3,1.459,1ZM9.793,8.5l-.147.146a.5.5,0,0,0,.708.708l.146-.147.293.293a1,1,0,0,0,1.414,0L14.5,7.207a1,1,0,0,0,0-1.414L14.207,5.5l.147-.146a.5.5,0,0,0-.708-.708l-.146.147L10.207,1.5l.147-.146A.5.5,0,0,0,9.646.646L9.5.793,9.207.5A1,1,0,0,0,7.793.5L5.5,2.793a1,1,0,0,0,0,1.414l.293.293-.147.146a.5.5,0,0,0,.708.708L6.5,5.207l.773.774L.439,12.439a1.5,1.5,0,0,0,2.122,2.122l6.46-6.833ZM13.5,6.207l.293.293L11.5,8.793h0L11.207,8.5ZM6.207,3.5,8.5,1.207l.293.293L6.5,3.793Zm1,1L9.5,2.207,12.793,5.5,10.5,7.793ZM1.854,13.854a.5.5,0,0,1-.728-.688L7.98,6.688l.333.333Z" fill="#fff"/>
	</symbol>
	<use xlink:href="#hearing" viewBox="0 0 16 16"/>
</svg>
