<!-- This file is part of Zotero. It is distributed under the GNU Affero General Public License version 3. -->
<svg xmlns="http://www.w3.org/2000/svg" xmlns:xlink="http://www.w3.org/1999/xlink">
	<symbol id="instant-message" viewBox="0 0 16 16">
		<path d="M8,.5C3.858.5.5,3.186.5,6.5a5.958,5.958,0,0,0,3.892,5.26A7.445,7.445,0,0,1,4.5,13a7.524,7.524,0,0,1-.323,2.177A7.517,7.517,0,0,0,8,12.5H8c4.142,0,7.5-2.686,7.5-6S12.142.5,8,.5Z" fill="#e0efff"/>
		<path d="M3.428,15.927l.27-.895A7.019,7.019,0,0,0,4,13a6.769,6.769,0,0,0-.062-.9A6.378,6.378,0,0,1,0,6.5C0,2.916,3.589,0,8,0s8,2.916,8,6.5c0,3.517-3.456,6.391-7.753,6.5a8.084,8.084,0,0,1-3.925,2.658ZM8,1C4.14,1,1,3.468,1,6.5a5.466,5.466,0,0,0,3.593,4.8l.247.109.045.266A7.915,7.915,0,0,1,5,13a7.957,7.957,0,0,1-.12,1.378A7.071,7.071,0,0,0,7.6,12.2l.15-.2H8c3.86,0,7-2.468,7-5.5S11.859,1,8,1Z" fill="#66adff"/>
	</symbol>
	<symbol id="instant-message-white">
		<path d="M8,.5C3.858.5.5,3.186.5,6.5a5.958,5.958,0,0,0,3.892,5.26A7.445,7.445,0,0,1,4.5,13a7.524,7.524,0,0,1-.323,2.177A7.517,7.517,0,0,0,8,12.5H8c4.142,0,7.5-2.686,7.5-6S12.142.5,8,.5Z" fill="#fff" opacity="0.2"/>
		<path d="M3.428,15.927l.27-.895A7.019,7.019,0,0,0,4,13a6.769,6.769,0,0,0-.062-.9A6.378,6.378,0,0,1,0,6.5C0,2.916,3.589,0,8,0s8,2.916,8,6.5c0,3.517-3.456,6.391-7.753,6.5a8.084,8.084,0,0,1-3.925,2.658ZM8,1C4.14,1,1,3.468,1,6.5a5.466,5.466,0,0,0,3.593,4.8l.247.109.045.266A7.915,7.915,0,0,1,5,13a7.957,7.957,0,0,1-.12,1.378A7.071,7.071,0,0,0,7.6,12.2l.15-.2H8c3.86,0,7-2.468,7-5.5S11.859,1,8,1Z" fill="#fff"/>
	</symbol>
	<use xlink:href="#instant-message" viewBox="0 0 16 16"/>
</svg>
