<!-- This file is part of Zotero. It is distributed under the GNU Affero General Public License version 3. -->
<svg xmlns="http://www.w3.org/2000/svg"
	xmlns:xlink="http://www.w3.org/1999/xlink">
	<symbol id="standard" viewBox="0 0 16 16">
		<polygon fill="#fff" opacity="0.5" points="9.7 0 1.5 0 1.5 16 14 16 14 4.8 9.7 0"/>
		<polyline fill="#fff" points="9.3 1 14 5.2 14 15 2.5 15 2.5 1 9.3 1"/>
		<path opacity="0.2" d="m9.7 0h-8.2v16h13v-11l-4.8-4.8zm0.29 1.7 2.8 2.8h-2.8v-2.8zm-7.5 13v-14h6.5v4.5h4.5v9.5h-11z"/>
		<polygon opacity="0.08" points="10 1.7 10 4.5 13 4.5"/>
		<path fill="#39bf68" d="m4 12h1v1h-1zm0-2.5h1v1h-1zm0-2.5h1v1h-1z"/>		
		<path fill="#39bf68" d="m12 10c-1.7 0-3 1.3-3 3s1.3 3 3 3 3-1.3 3-3-1.3-3-3-3zm-0.5 4.7-1.4-1.4 0.71-0.71 0.65 0.65 1.6-1.6 0.71 0.71-2.4 2.4z"/>
		<path fill="#444" d="m6 12v1h1.5c0-0.35 0.058-0.68 0.14-1zm-2-7.5h3.5v1h-3.5zm2 5v1h2.4c0.33-0.41 0.74-0.75 1.2-1zm0-2.5h6v1h-6z"/>
	</symbol>
	<symbol id="standard-white" viewBox="0 0 16 16">
		<polygon opacity="0" points="9.7 0 1.5 0 1.5 16 14 16 14 4.8 9.7 0"/>
		<polyline opacity="0" points="9.3 1 14 5.2 14 15 2.5 15 2.5 1 9.3 1"/>
		<path fill="#fff" d="m9.7 0h-8.2v16h13v-11l-4.8-4.8zm0.29 1.7 2.8 2.8h-2.8v-2.8zm-7.5 13v-14h6.5v4.5h4.5v9.5h-11z"/>
		<polygon fill="#fff" opacity="0.08"  points="10 1.7 10 4.5 13 4.5"/>
		<path fill="#fff" d="m4 12h1v1h-1zm0-2.5h1v1h-1zm0-2.5h1v1h-1z"/>
		<path fill="#fff" d="m12 10c-1.7 0-3 1.3-3 3s1.3 3 3 3 3-1.3 3-3-1.3-3-3-3zm-0.5 4.7-1.4-1.4 0.71-0.71 0.65 0.65 1.6-1.6 0.71 0.71-2.4 2.4z"/>
		<path fill="#fff" d="m6 12v1h1.5c0-0.35 0.058-0.68 0.14-1zm-2-7.5h3.5v1h-3.5zm2 5v1h2.4c0.33-0.41 0.74-0.75 1.2-1zm0-2.5h6v1h-6z"/>
	</symbol>
	<use xlink:href="#standard" viewBox="0 0 16 16"/>
</svg>
