<!-- This file is part of Zotero. It is distributed under the GNU Affero General Public License version 3. -->
<svg xmlns="http://www.w3.org/2000/svg" xmlns:xlink="http://www.w3.org/1999/xlink">
	<symbol id="thesis" viewBox="0 0 16 16">
		<path d="M2,11.724V6.5H1v5.224A3.489,3.489,0,0,0,.5,14c0,.276.448.5,1,.5s1-.224,1-.5A3.489,3.489,0,0,0,2,11.724Z" fill="#ff794c"/>
		<path d="M8,13c-2.439,0-4.5-1.145-4.5-2.5V6.375h9V10.5C12.5,11.855,10.439,13,8,13Z" fill="#8f8f8f"/>
		<polygon points="1.02 6 8 2.073 14.98 6 8 9.927 1.02 6" fill="#b4b4b4"/>
		<path d="M16,6,8,1.5,0,6,3,7.688V10.5c0,1.657,2.239,3,5,3s5-1.343,5-3V7.688ZM8,2.647,13.96,6,8,9.353,2.04,6ZM12,10.5c0,.944-1.711,2-4,2s-4-1.056-4-2V8.25L8,10.5l4-2.25Z" fill="#444"/>
	</symbol>
	<symbol id="thesis-white">
		<polygon points="1.02 6 8 2.073 14.98 6 8 9.927 1.02 6" fill="#fff" opacity="0.4"/>
		<path d="M8,9.927,3.5,7.4V10.5C3.5,11.855,5.561,13,8,13s4.5-1.145,4.5-2.5V7.4Z" fill="#fff" opacity="0.6"/>
		<path d="M8,1.5,0,6l1,.562v5.162A3.489,3.489,0,0,0,.5,14c0,.276.448.5,1,.5s1-.224,1-.5A3.489,3.489,0,0,0,2,11.724v-4.6l1,.563V10.5c0,1.657,2.239,3,5,3s5-1.343,5-3V7.688L16,6Zm4,9c0,.944-1.711,2-4,2s-4-1.056-4-2V8.25L8,10.5l4-2.25ZM8,9.353,2.04,6,8,2.647,13.96,6Z" fill="#fff"/>
	</symbol>
	<use xlink:href="#thesis" viewBox="0 0 16 16"/>
</svg>
