<!-- This file is part of Zotero. It is distributed under the GNU Affero General Public License version 3. -->
<svg xmlns="http://www.w3.org/2000/svg" xmlns:xlink="http://www.w3.org/1999/xlink">
	<symbol id="webpage-linked" viewBox="0 0 16 16">
		<path d="M9.5,10a3.447,3.447,0,0,1,2,.632,3.438,3.438,0,0,1,3.5-.281V2a1,1,0,0,0-1-1H1A1,1,0,0,0,0,2V15H6.351A3.464,3.464,0,0,1,6,13.5,3.5,3.5,0,0,1,9.5,10Z" fill="#fff" opacity="0.5"/>
		<path d="M7.5,13.5a2,2,0,0,1,4,0,2,2,0,0,1,2-2,1.966,1.966,0,0,1,.5.071V2H1V14H7.571A1.966,1.966,0,0,1,7.5,13.5Z" fill="#fff"/>
		<rect x="1" y="2" width="13" height="3" opacity="0.04"/>
		<rect x="2" y="3" width="1" height="1" fill="#e24940"/>
		<rect x="4" y="3" width="1" height="1" fill="#e0a32a"/>
		<rect x="6" y="3" width="1" height="1" fill="#28ad31"/>
		<path d="M9.5,10a3.447,3.447,0,0,1,2,.632,3.427,3.427,0,0,1,1-.483V8.5H2.5v4H6.163A3.494,3.494,0,0,1,9.5,10Z" fill="#b3c7f5"/>
		<path d="M6.051,14H1V6H14v4.051a3.44,3.44,0,0,1,1,.3V2a1,1,0,0,0-1-1H1A1,1,0,0,0,0,2V15H6.351A3.44,3.44,0,0,1,6.051,14ZM1,2H14V5H1Z" opacity="0.2"/>
		<path d="M6.351,12H3V9h9v1.342a3.45,3.45,0,0,1,1-.3V8H2v5H6.051A3.44,3.44,0,0,1,6.351,12Z" fill="#4072e5"/>
		<path d="M13.5,11a2.489,2.489,0,0,0-2,1.014,2.5,2.5,0,1,0,0,2.972A2.5,2.5,0,1,0,13.5,11Zm-4,4a1.5,1.5,0,1,1,1.408-2H9.5a.5.5,0,0,0,0,1h1.408A1.5,1.5,0,0,1,9.5,15Zm4,0a1.5,1.5,0,0,1-1.408-1H13.5a.5.5,0,0,0,0-1H12.092A1.5,1.5,0,1,1,13.5,15Z" fill="#888"/>
	</symbol>
	<symbol id="webpage-linked-white">
		<rect x="1" y="2" width="13" height="3" fill="#fff" opacity="0.2"/>
		<path d="M9.5,10a3.447,3.447,0,0,1,2,.632,3.427,3.427,0,0,1,1-.483V8.5H2.5v4H6.163A3.494,3.494,0,0,1,9.5,10Z" fill="#fff" opacity="0.4"/>
		<path d="M3,4H2V3H3ZM5,3H4V4H5ZM7,3H6V4H7ZM6.351,15H0V2A1,1,0,0,1,1,1H14a1,1,0,0,1,1,1v8.351a3.44,3.44,0,0,0-1-.3V6H1v8H6.051A3.44,3.44,0,0,0,6.351,15ZM1,5H14V2H1Zm5.351,7H3V9h9v1.342a3.45,3.45,0,0,1,1-.3V8H2v5H6.051A3.44,3.44,0,0,1,6.351,12ZM13.5,11a2.489,2.489,0,0,0-2,1.014,2.5,2.5,0,1,0,0,2.972A2.5,2.5,0,1,0,13.5,11Zm-4,4a1.5,1.5,0,1,1,1.408-2H9.5a.5.5,0,0,0,0,1h1.408A1.5,1.5,0,0,1,9.5,15Zm4,0a1.5,1.5,0,0,1-1.408-1H13.5a.5.5,0,0,0,0-1H12.092A1.5,1.5,0,1,1,13.5,15Z" fill="#fff"/>
	</symbol>
	<use xlink:href="#webpage-linked" viewBox="0 0 16 16"/>
</svg>
