<!-- This file is part of Zotero. It is distributed under the GNU Affero General Public License version 3. -->
<svg xmlns="http://www.w3.org/2000/svg" xmlns:xlink="http://www.w3.org/1999/xlink">
	<symbol id="s" viewBox="0 0 16 16">
		<path fill="currentColor" d="M12.756,11.048C12.756,13.778,10.366,15,8,15c-2.8,0-4.754-1.646-4.754-4h2c0,1.477,1.423,2,2.754,2,.461,0,2.758-.094,2.758-1.952,0-1.182-.554-1.452-2.135-1.926L6.883,8.644A3.817,3.817,0,0,1,3.615,4.926C3.615,2.614,5.461,1,8.1,1c2.533,0,4.442,1.6,4.442,3.714h-2C10.546,3.721,9.52,3,8.1,3c-1.511,0-2.489.756-2.489,1.926,0,.8.3,1.381,1.791,1.787l1.788.493C10.612,7.631,12.756,8.272,12.756,11.048ZM3.074,7H0V8H3.765A4.078,4.078,0,0,1,3.074,7ZM11.4,7a4.83,4.83,0,0,1,1.281,1H16V7Z"/>
	</symbol>
	<use xlink:href="#s" viewBox="0 0 16 16"/>
</svg>
