<!-- This file is part of Zotero. It is distributed under the GNU Affero General Public License version 3. -->
<svg xmlns="http://www.w3.org/2000/svg" xmlns:xlink="http://www.w3.org/1999/xlink">
	<symbol id="audio-recording" viewBox="0 0 16 16">
		<path d="M7,2.5a1.5,1.5,0,0,1,3,0v6a1.5,1.5,0,0,1-3,0Z" fill="#dadada"/>
		<path d="M8.5,0A2.5,2.5,0,0,0,6,2.5v6a2.5,2.5,0,0,0,5,0v-6A2.5,2.5,0,0,0,8.5,0ZM10,8.5a1.5,1.5,0,0,1-3,0v-6a1.5,1.5,0,0,1,3,0ZM9,12.949V15h3v1H5V15H8V12.949A4.49,4.49,0,0,1,4,8.5V6H5V8.5a3.5,3.5,0,0,0,7,0V6h1V8.5A4.49,4.49,0,0,1,9,12.949Z" fill="#444"/>
	</symbol>
	<symbol id="audio-recording-white">
		<path d="M7,2.5a1.5,1.5,0,0,1,3,0v6a1.5,1.5,0,0,1-3,0Z" fill="#fff" opacity="0.2"/>
		<path d="M8.5,0A2.5,2.5,0,0,0,6,2.5v6a2.5,2.5,0,0,0,5,0v-6A2.5,2.5,0,0,0,8.5,0ZM10,8.5a1.5,1.5,0,0,1-3,0v-6a1.5,1.5,0,0,1,3,0ZM9,12.949V15h3v1H5V15H8V12.949A4.49,4.49,0,0,1,4,8.5V6H5V8.5a3.5,3.5,0,0,0,7,0V6h1V8.5A4.49,4.49,0,0,1,9,12.949Z" fill="#fff"/>
	</symbol>
	<use xlink:href="#audio-recording" viewBox="0 0 16 16"/>
</svg>
