<!-- This file is part of Zotero. It is distributed under the GNU Affero General Public License version 3. -->
<svg xmlns="http://www.w3.org/2000/svg" xmlns:xlink="http://www.w3.org/1999/xlink">
	<symbol id="bill" viewBox="0 0 16 16">
		<path d="M13,8.5c0-2-2.037-2.718-3.835-3.347C7.253,4.484,6,3.955,6,2.75,6,1.687,6.981,1,8.5,1S11,1.785,11,3h1c0-1.794-1.406-3-3.5-3S5,1.105,5,2.75A2.361,2.361,0,0,0,5.482,4.2,2.512,2.512,0,0,0,4,6.5C4,8.505,6.037,9.218,7.835,9.847c1.912.67,3.165,1.2,3.165,2.4C11,13.313,10.019,14,8.5,14S6,13.215,6,12H5c0,1.794,1.406,3,3.5,3S12,13.9,12,12.25a2.357,2.357,0,0,0-.478-1.445A2.521,2.521,0,0,0,13,8.5Zm-2.268,1.546A11.173,11.173,0,0,0,8.165,8.9C6.253,8.233,5,7.705,5,6.5A1.643,1.643,0,0,1,6.257,4.947,11.131,11.131,0,0,0,8.835,6.1C10.747,6.766,12,7.3,12,8.5A1.649,1.649,0,0,1,10.732,10.046Z" fill="#cc9200"/>
	</symbol>
	<symbol id="bill-white">
		<path d="M13,8.5c0-2-2.037-2.718-3.835-3.347C7.253,4.484,6,3.955,6,2.75,6,1.687,6.981,1,8.5,1S11,1.785,11,3h1c0-1.794-1.406-3-3.5-3S5,1.105,5,2.75A2.361,2.361,0,0,0,5.482,4.2,2.512,2.512,0,0,0,4,6.5C4,8.505,6.037,9.218,7.835,9.847c1.912.67,3.165,1.2,3.165,2.4C11,13.313,10.019,14,8.5,14S6,13.215,6,12H5c0,1.794,1.406,3,3.5,3S12,13.9,12,12.25a2.357,2.357,0,0,0-.478-1.445A2.521,2.521,0,0,0,13,8.5Zm-2.268,1.546A11.173,11.173,0,0,0,8.165,8.9C6.253,8.233,5,7.705,5,6.5A1.643,1.643,0,0,1,6.257,4.947,11.131,11.131,0,0,0,8.835,6.1C10.747,6.766,12,7.3,12,8.5A1.649,1.649,0,0,1,10.732,10.046Z" fill="#fff"/>
	</symbol>
	<use xlink:href="#bill" viewBox="0 0 16 16"/>
</svg>
