<!-- This file is part of Zotero. It is distributed under the GNU Affero General Public License version 3. -->
<svg xmlns="http://www.w3.org/2000/svg" xmlns:xlink="http://www.w3.org/1999/xlink">
	<symbol id="book-section" viewBox="0 0 16 16">
		<path d="M8.438,1.872l-.219-.149C7.289,1.092,4.8.607,2.016.517L1.5.5v13l.485.015a19.589,19.589,0,0,1,5.839.914l.676.255V2.179Z" fill="#b3c7f5"/>
		<path d="M8.562,1.872l.219-.149c.93-.631,3.423-1.116,6.2-1.206L15.5.5v13l-.485.015a19.589,19.589,0,0,0-5.839.914l-.676.255V2.179Z" fill="#fff"/>
		<path d="M8.5,1.309C7.374.546,4.446,0,1,0V14a19.2,19.2,0,0,1,7,1.036,3.522,3.522,0,0,1,.5.273,3.522,3.522,0,0,1,.5-.273A19.2,19.2,0,0,1,16,14V0C12.554,0,9.626.546,8.5,1.309ZM8,13.961a19.931,19.931,0,0,0-6-.946v-12c2.961.1,5.188.612,5.939,1.121L8,2.179Zm7-.946a19.931,19.931,0,0,0-6,.946V2.179l.061-.042C9.812,1.628,12.039,1.113,15,1.016Z" fill="#4072e5"/>
		<path d="M14,4.066a18.677,18.677,0,0,0-4,.645V3.67a20.894,20.894,0,0,1,4-.6Zm0,2a18.6,18.6,0,0,0-4,.646V5.671a20.809,20.809,0,0,1,4-.6Zm0,4a18.6,18.6,0,0,0-4,.646V9.671a20.809,20.809,0,0,1,4-.6Zm0-2a18.6,18.6,0,0,0-4,.646V7.671a20.809,20.809,0,0,1,4-.6Z" fill="#444"/>
	</symbol>
	<symbol id="book-section-white">
		<path d="M8.438,1.872l-.219-.149C7.289,1.092,4.8.607,2.016.517L1.5.5v13l.485.015a19.589,19.589,0,0,1,5.839.914l.676.255V2.179Z" fill="#fff" opacity="0.4"/>
		<path d="M14,4.066a18.677,18.677,0,0,0-4,.645V3.67a20.894,20.894,0,0,1,4-.6Zm0,2a18.6,18.6,0,0,0-4,.646V5.671a20.809,20.809,0,0,1,4-.6Zm0,4a18.6,18.6,0,0,0-4,.646V9.671a20.809,20.809,0,0,1,4-.6Zm0-2a18.6,18.6,0,0,0-4,.646V7.671a20.809,20.809,0,0,1,4-.6Z" fill="#fff"/>
		<path d="M8.5,1.309C7.374.546,4.446,0,1,0V14a19.2,19.2,0,0,1,7,1.036,3.522,3.522,0,0,1,.5.273,3.522,3.522,0,0,1,.5-.273A19.2,19.2,0,0,1,16,14V0C12.554,0,9.626.546,8.5,1.309ZM8,13.961a19.931,19.931,0,0,0-6-.946v-12c2.961.1,5.188.612,5.939,1.121L8,2.179Zm7-.946a19.931,19.931,0,0,0-6,.946V2.179l.061-.042C9.812,1.628,12.039,1.113,15,1.016Z" fill="#fff"/>
	</symbol>
	<use xlink:href="#book-section" viewBox="0 0 16 16"/>
</svg>
