<!-- This file is part of Zotero. It is distributed under the GNU Affero General Public License version 3. -->
<svg xmlns="http://www.w3.org/2000/svg" xmlns:xlink="http://www.w3.org/1999/xlink">
	<symbol id="case" viewBox="0 0 16 16">
		<path d="M5.5,11h-4a.5.5,0,0,1-.481-.637l2-7a.5.5,0,0,1,.962,0l2,7A.5.5,0,0,1,5.5,11ZM2.163,10H4.837L3.5,5.32ZM15.5,11h-4a.5.5,0,0,1-.481-.637l2-7a.5.5,0,0,1,.962,0l2,7A.5.5,0,0,1,15.5,11Zm-3.337-1h2.674L13.5,5.32Z" fill="#fff" opacity="0.5"/>
		<path d="M5.5,11h-4a.5.5,0,0,1-.481-.637l2-7a.5.5,0,0,1,.962,0l2,7A.5.5,0,0,1,5.5,11ZM2.163,10H4.837L3.5,5.32ZM15.5,11h-4a.5.5,0,0,1-.481-.637l2-7a.5.5,0,0,1,.962,0l2,7A.5.5,0,0,1,15.5,11Zm-3.337-1h2.674L13.5,5.32Z" opacity="0.2"/>
		<path d="M5.5,10.5a1.763,1.763,0,0,1-2,2,1.763,1.763,0,0,1-2-2Z" fill="#ebd399"/>
		<path d="M15.5,10.5a1.763,1.763,0,0,1-2,2,1.763,1.763,0,0,1-2-2Z" fill="#ebd399"/>
		<path d="M14,2.5a.5.5,0,0,1-.5.5H3.5a.5.5,0,0,1,0-1H8V.5a.5.5,0,0,1,1,0V2h4.5A.5.5,0,0,1,14,2.5ZM11.5,15H10a1,1,0,0,0-1-1V4H8V14a1,1,0,0,0-1,1H5.5a.5.5,0,0,0,0,1h6a.5.5,0,0,0,0-1ZM6,10.5a.5.5,0,0,0-.5-.5h-4a.5.5,0,0,0-.5.5A2.255,2.255,0,0,0,3.5,13,2.255,2.255,0,0,0,6,10.5ZM4.959,11c-.129.7-.579,1-1.459,1s-1.33-.3-1.459-1ZM16,10.5a.5.5,0,0,0-.5-.5h-4a.5.5,0,0,0-.5.5A2.255,2.255,0,0,0,13.5,13,2.255,2.255,0,0,0,16,10.5Zm-1.041.5c-.129.7-.579,1-1.459,1s-1.33-.3-1.459-1Z" fill="#cc9200"/>
	</symbol>
	<symbol id="case-white">
		<path d="M5.5,10.5a1.763,1.763,0,0,1-2,2,1.763,1.763,0,0,1-2-2Zm6,0a1.763,1.763,0,0,0,2,2,1.763,1.763,0,0,0,2-2Z" fill="#fff" opacity="0.4"/>
		<path d="M15.983,10.417a.487.487,0,0,0,0-.054l-2-7a.5.5,0,0,0-.962,0l-2,7a.487.487,0,0,0,0,.054A.47.47,0,0,0,11,10.5,2.255,2.255,0,0,0,13.5,13,2.255,2.255,0,0,0,16,10.5.47.47,0,0,0,15.983,10.417ZM13.5,5.32,14.837,10H12.163Zm0,6.68c-.88,0-1.33-.3-1.459-1h2.918C14.83,11.7,14.38,12,13.5,12ZM6,10.5a.452.452,0,0,0-.017-.083.478.478,0,0,0,0-.054l-2-7a.5.5,0,0,0-.962,0l-2,7c0,.018,0,.037,0,.055A.566.566,0,0,0,1,10.5,2.255,2.255,0,0,0,3.5,13,2.255,2.255,0,0,0,6,10.5ZM3.5,5.32,4.837,10H2.163ZM3.5,12c-.88,0-1.33-.3-1.459-1H4.959C4.83,11.7,4.38,12,3.5,12Zm10-9H3.5a.5.5,0,0,1,0-1H8V.5a.5.5,0,0,1,1,0V2h4.5a.5.5,0,0,1,0,1ZM12,15.5a.5.5,0,0,1-.5.5h-6a.5.5,0,0,1,0-1H7a1,1,0,0,1,1-1V4H9V14a1,1,0,0,1,1,1h1.5A.5.5,0,0,1,12,15.5Z" fill="#fff"/>
	</symbol>
	<use xlink:href="#case" viewBox="0 0 16 16"/>
</svg>
