<!-- This file is part of Zotero. It is distributed under the GNU Affero General Public License version 3. -->
<svg xmlns="http://www.w3.org/2000/svg" xmlns:xlink="http://www.w3.org/1999/xlink">
	<symbol id="document-linked" viewBox="0 0 16 16">
		<path d="M7.606,14.547l0-.008A1.482,1.482,0,0,1,7.5,14V13A1.5,1.5,0,0,1,9,11.5h1A1.5,1.5,0,0,1,11.5,13,1.5,1.5,0,0,1,13,11.5h1V10h1V5.293L9.707,0H2V16H6V15H7.889A1.517,1.517,0,0,1,7.606,14.547Z" fill="#fff" opacity="0.5"/>
		<path d="M7.606,14.547l0-.008A1.482,1.482,0,0,1,7.5,14V13A1.5,1.5,0,0,1,9,11.5h1A1.5,1.5,0,0,1,11.5,13,1.5,1.5,0,0,1,13,11.5h1V5.707L9.293,1H3V15H7.889A1.517,1.517,0,0,1,7.606,14.547Z" fill="#fff"/>
		<g opacity="0.08">
			<polygon points="10 1.707 10 5 13.293 5 10 1.707"/>
		</g>
		<path d="M6,15H3V1H9V6h5v4h1V5.293L9.707,0H2V16H6ZM10,1.707,13.293,5H10Z" opacity="0.2"/>
		<path d="M14,11H13a1.985,1.985,0,0,0-1.5.69A1.985,1.985,0,0,0,10,11H9a2,2,0,0,0-2,2v1a2,2,0,0,0,2,2h1a1.985,1.985,0,0,0,1.5-.69A1.985,1.985,0,0,0,13,16h1a2,2,0,0,0,2-2V13A2,2,0,0,0,14,11Zm-4,4H9a1,1,0,0,1-1-1V13a1,1,0,0,1,1-1h1a1,1,0,0,1,1,1H9.5a.5.5,0,0,0,0,1H11A1,1,0,0,1,10,15Zm5-1a1,1,0,0,1-1,1H13a1,1,0,0,1-1-1h1.5a.5.5,0,0,0,0-1H12a1,1,0,0,1,1-1h1a1,1,0,0,1,1,1Z" fill="#888"/>
	</symbol>
	<symbol id="document-linked-white">
		<g opacity="0.4">
			<polygon points="10 1.707 10 5 13.293 5 10 1.707" fill="#fff"/>
		</g>
		<path d="M6,15H3V1H9V6h5v4h1V5.293L9.707,0H2V16H6ZM10,1.707,13.293,5H10ZM14,11H13a1.985,1.985,0,0,0-1.5.69A1.985,1.985,0,0,0,10,11H9a2,2,0,0,0-2,2v1a2,2,0,0,0,2,2h1a1.985,1.985,0,0,0,1.5-.69A1.985,1.985,0,0,0,13,16h1a2,2,0,0,0,2-2V13A2,2,0,0,0,14,11Zm-4,4H9a1,1,0,0,1-1-1V13a1,1,0,0,1,1-1h1a1,1,0,0,1,1,1H9.5a.5.5,0,0,0,0,1H11A1,1,0,0,1,10,15Zm5-1a1,1,0,0,1-1,1H13a1,1,0,0,1-1-1h1.5a.5.5,0,0,0,0-1H12a1,1,0,0,1,1-1h1a1,1,0,0,1,1,1Z" fill="#fff"/>
	</symbol>
	<use xlink:href="#document-linked" viewBox="0 0 16 16"/>
</svg>
