<!-- This file is part of Zotero. It is distributed under the GNU Affero General Public License version 3. -->
<svg xmlns="http://www.w3.org/2000/svg" xmlns:xlink="http://www.w3.org/1999/xlink">
	<symbol id="encyclopedia-article" viewBox="0 0 16 16">
		<path d="M15.5.5v13a19,19,0,0,0-6.707,1.077c-.1.047-.2.1-.293.145-.091-.049-.189-.1-.293-.145A19,19,0,0,0,1.5,13.5V.5c3.456.053,5.89.657,6.719,1.219l.281.191.281-.191C9.61,1.161,12.044.557,15.5.5" fill="#fff"/>
		<path d="M4,1.157a18.559,18.559,0,0,1,2,.312v8.672l-.449-.3-.409-.27-.464.158L4,9.963V1.157" fill="#db2c3a" opacity="0.4"/>
		<path d="M8.5,1.309A5.51,5.51,0,0,0,7,.688v1.04a3.866,3.866,0,0,1,.939.409L8,2.179V13.961a19.931,19.931,0,0,0-6-.946v-12c.344.012.677.03,1,.051v-1C2.358.028,1.694,0,1,0V14a19.2,19.2,0,0,1,7,1.036,3.522,3.522,0,0,1,.5.273,3.522,3.522,0,0,1,.5-.273A19.2,19.2,0,0,1,16,14V0C12.554,0,9.626.546,8.5,1.309ZM15,13.015a19.931,19.931,0,0,0-6,.946V2.179l.061-.042C9.812,1.628,12.039,1.113,15,1.016Z" fill="#4072e5"/>
		<path d="M3,.069v11.29l2-.68L7,12V.688A19.67,19.67,0,0,0,3,.069ZM6,10.141l-.449-.3-.409-.27-.464.158L4,9.963V1.157a18.559,18.559,0,0,1,2,.312Z" fill="#db2c3a"/>
	</symbol>
	<symbol id="encyclopedia-article-white">
		<path d="M4,1.157a18.559,18.559,0,0,1,2,.312v8.672l-.449-.3-.409-.27-.464.158L4,9.963V1.157" fill="#fff" opacity="0.4"/>
		<path d="M8.5,1.309C7.374.546,4.446,0,1,0V14a19.2,19.2,0,0,1,7,1.036,3.522,3.522,0,0,1,.5.273,3.522,3.522,0,0,1,.5-.273A19.2,19.2,0,0,1,16,14V0C12.554,0,9.626.546,8.5,1.309ZM6,1.469v8.672l-.449-.3-.409-.27-.464.158L4,9.963V1.157A18.559,18.559,0,0,1,6,1.469ZM8,13.961a19.931,19.931,0,0,0-6-.946v-12c.344.012.677.03,1,.051V11.359l2-.68L7,12V1.728a3.866,3.866,0,0,1,.939.409L8,2.179Zm7-.946a19.931,19.931,0,0,0-6,.946V2.179l.061-.042C9.812,1.628,12.039,1.113,15,1.016Z" fill="#fff"/>
	</symbol>
	<use xlink:href="#encyclopedia-article" viewBox="0 0 16 16"/>
</svg>
