<!-- This file is part of Zotero. It is distributed under the GNU Affero General Public License version 3. -->
<svg xmlns="http://www.w3.org/2000/svg" xmlns:xlink="http://www.w3.org/1999/xlink">
	<symbol id="forum-post" viewBox="0 0 16 16">
		<path d="M5,12.5C1.41,12.5.5,13.515.5,16h9C9.5,13.515,8.59,12.5,5,12.5Z" fill="#444" opacity="0.2"/>
		<path d="M5,13c3.444,0,4,.885,4,3h1c0-2.916-1.355-4-5-4s-5,1.084-5,4H1C1,13.885,1.556,13,5,13Z" fill="#444"/>
		<path d="M5.288,5.529A2.464,2.464,0,0,0,5,5.5,2.5,2.5,0,1,0,7.5,8.052,5.17,5.17,0,0,1,5.288,5.529Z" fill="#444" opacity="0.2"/>
		<path d="M6.969,7.7A1.91,1.91,0,0,1,7,8,2,2,0,1,1,5,6a1.95,1.95,0,0,1,.553.088,4.425,4.425,0,0,1-.43-1.076C5.082,5.011,5.042,5,5,5A3,3,0,1,0,7.969,8.31,6.139,6.139,0,0,1,6.969,7.7Z" fill="#444"/>
		<path d="M9.305,9.278A4.28,4.28,0,0,0,9.5,8a2.577,2.577,0,0,0-.024-.306L9.444,7.38l-.308-.2A3.587,3.587,0,0,1,6.5,4C6.5,2.07,8.519.5,11,.5S15.5,2.07,15.5,4c0,1.636-1.495,3.074-3.555,3.42l-.2.033-.12.164A4.547,4.547,0,0,1,9.305,9.278Z" fill="#e0efff"/>
		<path d="M11,1c2.206,0,4,1.346,4,3,0,1.391-1.32,2.622-3.138,2.927l-.4.067-.24.328A4.1,4.1,0,0,1,9.98,8.44c.013-.146.02-.293.02-.44a2.85,2.85,0,0,0-.027-.36l-.01-.086L9.9,6.92l-.6-.215A3.1,3.1,0,0,1,7,4c0-1.654,1.794-3,4-3m0-1C8.243,0,6,1.794,6,4A4.077,4.077,0,0,0,8.967,7.647C8.978,7.765,9,7.879,9,8a3.953,3.953,0,0,1-.531,1.953,5.007,5.007,0,0,0,3.559-2.04C14.293,7.533,16,5.924,16,4c0-2.206-2.243-4-5-4Z" fill="#66adff"/>
	</symbol>
	<symbol id="forum-post-white">
		<path d="M5,12.5C1.41,12.5.5,13.515.5,16h9C9.5,13.515,8.59,12.5,5,12.5Z" fill="#fff" opacity="0.2"/>
		<path d="M5,13c3.444,0,4,.885,4,3h1c0-2.916-1.355-4-5-4s-5,1.084-5,4H1C1,13.885,1.556,13,5,13Z" fill="#fff"/>
		<path d="M5.288,5.529A2.464,2.464,0,0,0,5,5.5,2.5,2.5,0,1,0,7.5,8.052,5.17,5.17,0,0,1,5.288,5.529Z" fill="#fff" opacity="0.2"/>
		<path d="M6.969,7.7A1.91,1.91,0,0,1,7,8,2,2,0,1,1,5,6a1.95,1.95,0,0,1,.553.088,4.425,4.425,0,0,1-.43-1.076C5.082,5.011,5.042,5,5,5A3,3,0,1,0,7.969,8.31,6.139,6.139,0,0,1,6.969,7.7Z" fill="#fff"/>
		<path d="M9.305,9.278A4.28,4.28,0,0,0,9.5,8a2.577,2.577,0,0,0-.024-.306L9.444,7.38l-.308-.2A3.587,3.587,0,0,1,6.5,4C6.5,2.07,8.519.5,11,.5S15.5,2.07,15.5,4c0,1.636-1.495,3.074-3.555,3.42l-.2.033-.12.164A4.547,4.547,0,0,1,9.305,9.278Z" fill="#fff" opacity="0.2"/>
		<path d="M11,1c2.206,0,4,1.346,4,3,0,1.391-1.32,2.622-3.138,2.927l-.4.067-.24.328A4.1,4.1,0,0,1,9.98,8.44c.013-.146.02-.293.02-.44a2.85,2.85,0,0,0-.027-.36l-.01-.086L9.9,6.92l-.6-.215A3.1,3.1,0,0,1,7,4c0-1.654,1.794-3,4-3m0-1C8.243,0,6,1.794,6,4A4.077,4.077,0,0,0,8.967,7.647C8.978,7.765,9,7.879,9,8a3.953,3.953,0,0,1-.531,1.953,5.007,5.007,0,0,0,3.559-2.04C14.293,7.533,16,5.924,16,4c0-2.206-2.243-4-5-4Z" fill="#fff"/>
	</symbol>
	<use xlink:href="#forum-post" viewBox="0 0 16 16"/>
</svg>
