<!-- This file is part of Zotero. It is distributed under the GNU Affero General Public License version 3. -->
<svg xmlns="http://www.w3.org/2000/svg" xmlns:xlink="http://www.w3.org/1999/xlink">
	<symbol id="hearing" viewBox="0 0 16 16">
		<path d="M1.5,14.5a1,1,0,0,1-.707-1.707l7.2-6.8L9.011,7.011,2.2,14.217A.985.985,0,0,1,1.5,14.5Zm14,1h-8a1.762,1.762,0,0,1,2-2h4A1.762,1.762,0,0,1,15.5,15.5Zm-9-11-.646-.646a.5.5,0,0,1,0-.707L8.147.854a.5.5,0,0,1,.707,0L9.5,1.5Zm4.646,4.646L10.5,8.5l3-3,.646.646a.5.5,0,0,1,0,.707L11.853,9.146A.5.5,0,0,1,11.146,9.146Z" fill="#d6c4c5"/>
		<path d="M7.98,6.687l.333.334L1.854,13.854a.5.5,0,0,1-.728-.688L7.98,6.687M8,5.292.439,12.439a1.5,1.5,0,0,0,2.122,2.122L9.708,7,8,5.292Z" fill="#996b6f"/>
		<rect x="7.879" y="2.172" width="4.243" height="5.657" transform="translate(-0.607 8.536) rotate(-45)" fill="#ebd399"/>
		<path d="M13.146,5.854l-4-4,.708-.708,4,4ZM10.854,8.146l-4-4-.708.708,4,4Z" fill="#cc9200"/>
		<path d="M15.5,16h-8a.5.5,0,0,1-.5-.5A2.255,2.255,0,0,1,9.5,13h4A2.255,2.255,0,0,1,16,15.5.5.5,0,0,1,15.5,16ZM8.041,15h6.918c-.129-.7-.579-1-1.459-1h-4C8.62,14,8.17,14.3,8.041,15ZM6.5,5.207l-1-1a1,1,0,0,1,0-1.414L7.793.5A1,1,0,0,1,9.207.5l1,1Zm2-4L6.207,3.5l.293.293L8.793,1.5Zm3,8.585a1,1,0,0,1-.707-.292l-1-1L13.5,4.793l1,1a1,1,0,0,1,0,1.414L12.207,9.5A1,1,0,0,1,11.5,9.792Zm0-1M11.207,8.5l.293.293L13.793,6.5,13.5,6.207Z" fill="#996b6f"/>
	</symbol>
	<symbol id="hearing-white">
		<g opacity="0.4">
			<path d="M13.5,13.5h-4a1.762,1.762,0,0,0-2,2h8A1.762,1.762,0,0,0,13.5,13.5Z" fill="#fff"/>
			<path d="M11.146,9.146a.5.5,0,0,0,.707,0l2.293-2.293a.5.5,0,0,0,0-.707L9.5,1.5,8.854.854a.5.5,0,0,0-.707,0L5.854,3.147a.5.5,0,0,0,0,.707L6.5,4.5,7.989,5.989l-7.2,6.8A1,1,0,0,0,1.5,14.5a.985.985,0,0,0,.7-.283L9.011,7.011Z" fill="#fff"/>
		</g>
		<path d="M13.5,13h-4A2.255,2.255,0,0,0,7,15.5a.5.5,0,0,0,.5.5h8a.5.5,0,0,0,.5-.5A2.255,2.255,0,0,0,13.5,13ZM8.041,15c.129-.7.579-1,1.459-1h4c.88,0,1.33.3,1.459,1Zm2.752-5.5a1,1,0,0,0,1.414,0L14.5,7.207a1,1,0,0,0,0-1.414L9.207.5A1,1,0,0,0,7.793.5L5.5,2.793a1,1,0,0,0,0,1.414L7.272,5.979.439,12.439a1.5,1.5,0,0,0,2.122,2.122l6.46-6.833ZM1.854,13.854a.5.5,0,0,1-.728-.688L7.98,6.687l.333.334ZM13.793,6.5,11.5,8.793,11.207,8.5,13.5,6.207Zm-7.586-3L8.5,1.207l.293.293L6.5,3.793Zm1,1L9.5,2.207,12.793,5.5,10.5,7.793Z" fill="#fff"/>
	</symbol>
	<use xlink:href="#hearing" viewBox="0 0 16 16"/>
</svg>
