<!-- This file is part of Zotero. It is distributed under the GNU Affero General Public License version 3. -->
<svg xmlns="http://www.w3.org/2000/svg" xmlns:xlink="http://www.w3.org/1999/xlink">
	<symbol id="interview" viewBox="0 0 16 16">
		<path d="M10.92,11.135A.553.553,0,0,1,10.549,11L5.322,6.321a.439.439,0,0,1-.017-.647L6.719,4.26a.437.437,0,0,1,.648.018L12.043,9.5a.572.572,0,0,1-.021.767l-.707.707A.562.562,0,0,1,10.92,11.135Z" fill="#b4b4b4"/>
		<circle cx="5" cy="4" r="2.5" fill="#dadada"/>
		<path d="M12.536,10.747c-.052-.043-.1-.09-.153-.134a1.071,1.071,0,0,0,.033-1.442L7.979,4.212C7.984,4.141,8,4.073,8,4A3,3,0,1,0,5,7a2.9,2.9,0,0,0,.3-.03l4.919,4.4a1.073,1.073,0,0,0,1.453-.04l.009-.009c.074.064.147.134.222.2.682.563,1.1.935,1.1,1.482a1,1,0,0,1-1,1c-.793,0-1.45-.657-2.146-1.354A4.253,4.253,0,0,0,7,11a2,2,0,0,0-2,2c0,1.635,2.026,2.809,2.257,2.937A.506.506,0,0,0,7.5,16a.5.5,0,0,0,.243-.937C7.291,14.812,6,13.893,6,13a1,1,0,0,1,1-1c.793,0,1.45.657,2.146,1.354A4.253,4.253,0,0,0,12,15a2,2,0,0,0,2-2A3.028,3.028,0,0,0,12.536,10.747ZM3,4A2,2,0,1,1,5,6,2,2,0,0,1,3,4Zm8.669,5.917-.707.707-.079,0-4.467-4A2.99,2.99,0,0,0,7.661,5.357l4.01,4.481A.085.085,0,0,1,11.669,9.917Z" fill="#444"/>
	</symbol>
	<symbol id="interview-white">
		<circle cx="5" cy="4" r="2.5" fill="#fff" opacity="0.2"/>
		<path d="M12.043,9.5,7.461,4.383a2.5,2.5,0,0,1-1.992,2.07L10.549,11a.553.553,0,0,0,.371.137.562.562,0,0,0,.395-.157l.707-.707A.572.572,0,0,0,12.043,9.5Z" fill="#fff" opacity="0.4"/>
		<path d="M12.536,10.747c-.052-.043-.1-.09-.153-.134a1.071,1.071,0,0,0,.033-1.442L7.979,4.212C7.984,4.141,8,4.073,8,4A3,3,0,1,0,5,7a2.9,2.9,0,0,0,.3-.03l4.919,4.4a1.073,1.073,0,0,0,1.453-.04l.009-.009c.074.064.147.134.222.2.682.563,1.1.935,1.1,1.482a1,1,0,0,1-1,1c-.793,0-1.45-.657-2.146-1.354A4.253,4.253,0,0,0,7,11a2,2,0,0,0-2,2c0,1.635,2.026,2.809,2.257,2.937A.506.506,0,0,0,7.5,16a.5.5,0,0,0,.243-.937C7.291,14.812,6,13.893,6,13a1,1,0,0,1,1-1c.793,0,1.45.657,2.146,1.354A4.253,4.253,0,0,0,12,15a2,2,0,0,0,2-2A3.028,3.028,0,0,0,12.536,10.747ZM3,4A2,2,0,1,1,5,6,2,2,0,0,1,3,4Zm8.669,5.917-.707.707-.079,0-4.467-4A2.99,2.99,0,0,0,7.661,5.357l4.01,4.481A.085.085,0,0,1,11.669,9.917Z" fill="#fff"/>
	</symbol>
	<use xlink:href="#interview" viewBox="0 0 16 16"/>
</svg>
