<!-- This file is part of Zotero. It is distributed under the GNU Affero General Public License version 3. -->
<svg xmlns="http://www.w3.org/2000/svg" xmlns:xlink="http://www.w3.org/1999/xlink">
	<symbol id="link" viewBox="0 0 16 16">
		<path fill="#737373" d="M12.5,13h-4a3.5,3.5,0,0,1,0-7h.408a1.4,1.4,0,0,1,0,1H8.5a2.5,2.5,0,0,0,0,5h4a2.5,2.5,0,0,0,0-5h-.547A4.575,4.575,0,0,0,12,6.5a4.575,4.575,0,0,0-.047-.5H12.5a3.5,3.5,0,0,1,0,7ZM0,6.5A3.5,3.5,0,0,0,3.5,10h.547A4.575,4.575,0,0,1,4,9.5,4.575,4.575,0,0,1,4.047,9H3.5a2.5,2.5,0,0,1,0-5h4a2.5,2.5,0,0,1,0,5H7.092a1.4,1.4,0,0,0,0,1H7.5a3.5,3.5,0,0,0,0-7h-4A3.5,3.5,0,0,0,0,6.5Z"/>
	</symbol>
	<symbol id="link-white" viewBox="0 0 16 16">
		<path fill="#fff" d="M12.5,13h-4a3.5,3.5,0,0,1,0-7h.408a1.4,1.4,0,0,1,0,1H8.5a2.5,2.5,0,0,0,0,5h4a2.5,2.5,0,0,0,0-5h-.547A4.575,4.575,0,0,0,12,6.5a4.575,4.575,0,0,0-.047-.5H12.5a3.5,3.5,0,0,1,0,7ZM0,6.5A3.5,3.5,0,0,0,3.5,10h.547A4.575,4.575,0,0,1,4,9.5,4.575,4.575,0,0,1,4.047,9H3.5a2.5,2.5,0,0,1,0-5h4a2.5,2.5,0,0,1,0,5H7.092a1.4,1.4,0,0,0,0,1H7.5a3.5,3.5,0,0,0,0-7h-4A3.5,3.5,0,0,0,0,6.5Z"/>
	</symbol>
	<use xlink:href="#link" viewBox="0 0 16 16"/>
</svg>
