<!-- This file is part of Zotero. It is distributed under the GNU Affero General Public License version 3. -->
<svg xmlns="http://www.w3.org/2000/svg" xmlns:xlink="http://www.w3.org/1999/xlink">
	<symbol id="patent" viewBox="0 0 16 16">
		<path d="M6.5,11v.5h3V11a3.57,3.57,0,0,1,1.265-2.314A5.149,5.149,0,0,0,12.5,5a4.5,4.5,0,0,0-9,0A5.263,5.263,0,0,0,5.261,8.747,3.539,3.539,0,0,1,6.5,11Z" fill="#fff"/>
		<path d="M7.5,15.5a1,1,0,0,1-1-1v-3h3v3a1,1,0,0,1-1,1Z" fill="#e4e4e4"/>
		<path d="M6,11v3.5A1.5,1.5,0,0,0,7.5,16h1A1.5,1.5,0,0,0,10,14.5V11Zm3,3.5a.5.5,0,0,1-.5.5h-1a.5.5,0,0,1-.5-.5V14H9ZM9,13H7V12H9Z" fill="#777"/>
		<path d="M7,11A3.956,3.956,0,0,0,5.631,8.411,4.786,4.786,0,0,1,4,5a4,4,0,0,1,8,0A4.673,4.673,0,0,1,10.4,8.349,3.993,3.993,0,0,0,9,11h1c0-1.75,3-2.609,3-6A5,5,0,0,0,3,5c0,3.391,3,4.328,3,6Z" fill="#faa700"/>
	</symbol>
	<symbol id="patent-white">
		<path d="M7.5,15.5a1,1,0,0,1-1-1v-3h3v3a1,1,0,0,1-1,1Z" fill="#fff" opacity="0.2"/>
		<path d="M8,0A5,5,0,0,0,3,5c0,3.391,3,4.328,3,6v3.5A1.5,1.5,0,0,0,7.5,16h1A1.5,1.5,0,0,0,10,14.5V11c0-1.75,3-2.609,3-6A5,5,0,0,0,8,0ZM9,14.5a.5.5,0,0,1-.5.5h-1a.5.5,0,0,1-.5-.5V14H9ZM9,13H7V12H9Zm0-2H7A3.956,3.956,0,0,0,5.631,8.411,4.786,4.786,0,0,1,4,5a4,4,0,0,1,8,0A4.673,4.673,0,0,1,10.4,8.349,3.993,3.993,0,0,0,9,11Z" fill="#fff"/>
	</symbol>
	<use xlink:href="#patent" viewBox="0 0 16 16"/>
</svg>
