<!-- This file is part of Zotero. It is distributed under the GNU Affero General Public License version 3. -->
<svg xmlns="http://www.w3.org/2000/svg" xmlns:xlink="http://www.w3.org/1999/xlink">
	<symbol id="pdf-linked" viewBox="0 0 16 16">
		<path d="M9,11.5h1A1.5,1.5,0,0,1,11.5,13,1.5,1.5,0,0,1,13,11.5h1V10h1V4.293L10.707,0H3V15H6V14H7.5V13A1.5,1.5,0,0,1,9,11.5Z" fill="#fff" opacity="0.5"/>
		<path d="M9,11.5h1A1.5,1.5,0,0,1,11.5,13,1.5,1.5,0,0,1,13,11.5h1V4.707L10.293,1H4V14H7.5V13A1.5,1.5,0,0,1,9,11.5Z" fill="#fff"/>
		<g opacity="0.08">
			<polygon points="11 1.707 11 4 13.293 4 11 1.707"/>
		</g>
		<g opacity="0.2">
			<path d="M4,14V1h6V5h4v5h1V4.293L10.707,0H3V15H6V14ZM11,1.707,13.293,4H11Z"/>
		</g>
		<path d="M14,11H13a1.985,1.985,0,0,0-1.5.69A1.985,1.985,0,0,0,10,11H9a2,2,0,0,0-2,2v1a2,2,0,0,0,2,2h1a1.985,1.985,0,0,0,1.5-.69A1.985,1.985,0,0,0,13,16h1a2,2,0,0,0,2-2V13A2,2,0,0,0,14,11Zm-4,4H9a1,1,0,0,1-1-1V13a1,1,0,0,1,1-1h1a1,1,0,0,1,1,1H9.5a.5.5,0,0,0,0,1H11A1,1,0,0,1,10,15Zm5-1a1,1,0,0,1-1,1H13a1,1,0,0,1-1-1h1.5a.5.5,0,0,0,0-1H12a1,1,0,0,1,1-1h1a1,1,0,0,1,1,1Z" fill="#888"/>
		<rect x="1" y="4" width="6" height="2" fill="#f1abb0"/>
		<path d="M7,4V6H1V4H7M8,3H0V7H8V3Z" fill="#db2c3a"/>
	</symbol>
	<symbol id="pdf-linked-white">
		<g opacity="0.4">
			<path d="M13.293,4H11V1.707ZM7,6V4H1V6Z" fill="#fff"/>
		</g>
		<path d="M14,11H13a1.985,1.985,0,0,0-1.5.69A1.985,1.985,0,0,0,10,11H9a2,2,0,0,0-2,2v1a2,2,0,0,0,2,2h1a1.985,1.985,0,0,0,1.5-.69A1.985,1.985,0,0,0,13,16h1a2,2,0,0,0,2-2V13A2,2,0,0,0,14,11ZM9.5,14H11a1,1,0,0,1-1,1H9a1,1,0,0,1-1-1V13a1,1,0,0,1,1-1h1a1,1,0,0,1,1,1H9.5a.5.5,0,0,0,0,1ZM15,14a1,1,0,0,1-1,1H13a1,1,0,0,1-1-1h1.5a.5.5,0,0,0,0-1H12a1,1,0,0,1,1-1h1a1,1,0,0,1,1,1ZM4,7H8V3H4V1h6V5h4v5h1V4.293L10.707,0H3V3H0V7H3v8H6V14H4Zm7-5.293L13.293,4H11ZM1,6V4H7V6Z" fill="#fff"/>
	</symbol>
	<use xlink:href="#pdf-linked" viewBox="0 0 16 16"/>
</svg>
