<!-- This file is part of Zotero. It is distributed under the GNU Affero General Public License version 3. -->
<svg xmlns="http://www.w3.org/2000/svg" xmlns:xlink="http://www.w3.org/1999/xlink">
	<symbol id="podcast" viewBox="0 0 16 16">
		<path d="M5.5,16V13.444c0-1.38.506-1.944,2.5-1.944s2.5.564,2.5,1.944V16" fill="#444" opacity="0.2"/>
		<circle cx="8" cy="8" r="1.5" fill="#444" opacity="0.2"/>
		<path d="M1.867,13.133a8,8,0,1,1,12.266,0l-.712-.712a7,7,0,1,0-10.842,0ZM4,8a4,4,0,1,1,7.279,2.279l.709.709A4.993,4.993,0,1,0,3,8a4.959,4.959,0,0,0,1.012,2.988l.709-.709A3.965,3.965,0,0,1,4,8Z" fill="#ff794c"/>
		<path d="M11,13.444C11,11.686,10.159,11,8,11s-3,.686-3,2.444V16H6V13.444C6,12.521,6.093,12,8,12s2,.521,2,1.444V16h1ZM8,6a2,2,0,1,0,2,2A2,2,0,0,0,8,6ZM8,9A1,1,0,1,1,9,8,1,1,0,0,1,8,9Z" fill="#444"/>
	</symbol>
	<symbol id="podcast-white">
		<path d="M5.5,16V13.444c0-1.38.506-1.944,2.5-1.944s2.5.564,2.5,1.944V16M8,6.5A1.5,1.5,0,1,0,9.5,8,1.5,1.5,0,0,0,8,6.5Z" fill="#fff" opacity="0.2"/>
		<path d="M1.867,13.133a8,8,0,1,1,12.266,0l-.712-.712a7,7,0,1,0-10.842,0ZM4,8a4,4,0,1,1,7.279,2.279l.709.709A4.993,4.993,0,1,0,3,8a4.959,4.959,0,0,0,1.012,2.988l.709-.709A3.965,3.965,0,0,1,4,8Zm7,5.444C11,11.686,10.159,11,8,11s-3,.686-3,2.444V16H6V13.444C6,12.521,6.093,12,8,12s2,.521,2,1.444V16h1ZM8,6a2,2,0,1,0,2,2A2,2,0,0,0,8,6ZM8,9A1,1,0,1,1,9,8,1,1,0,0,1,8,9Z" fill="#fff"/>
	</symbol>
	<use xlink:href="#podcast" viewBox="0 0 16 16"/>
</svg>
