<!-- This file is part of Zotero. It is distributed under the GNU Affero General Public License version 3. -->
<svg xmlns="http://www.w3.org/2000/svg" xmlns:xlink="http://www.w3.org/1999/xlink">
	<symbol id="radio-broadcast" viewBox="0 0 16 16">
		<path d="M4,8a3.981,3.981,0,0,0,1.576,3.16l-.608.791a4.95,4.95,0,0,1,0-7.9l.608.791A3.981,3.981,0,0,0,4,8ZM1,8A6.985,6.985,0,0,1,3.745,2.455l-.61-.8a7.978,7.978,0,0,0,0,12.68l.61-.795A6.985,6.985,0,0,1,1,8ZM11.032,4.049l-.608.791a3.956,3.956,0,0,1,0,6.32l.608.791a4.95,4.95,0,0,0,0-7.9ZM10,8A2,2,0,1,1,8,6,2,2,0,0,1,10,8ZM9,8A1,1,0,1,0,8,9,1,1,0,0,0,9,8Zm3.865-6.34-.61.8a6.973,6.973,0,0,1,0,11.09l.61.8a7.978,7.978,0,0,0,0-12.68Z" fill="#ff794c"/>
	</symbol>
	<symbol id="radio-broadcast-white">
		<path d="M4,8a3.981,3.981,0,0,0,1.576,3.16l-.608.791a4.95,4.95,0,0,1,0-7.9l.608.791A3.981,3.981,0,0,0,4,8ZM1,8A6.985,6.985,0,0,1,3.745,2.455l-.61-.8a7.978,7.978,0,0,0,0,12.68l.61-.795A6.985,6.985,0,0,1,1,8ZM11.032,4.049l-.608.791a3.956,3.956,0,0,1,0,6.32l.608.791a4.95,4.95,0,0,0,0-7.9ZM10,8A2,2,0,1,1,8,6,2,2,0,0,1,10,8ZM9,8A1,1,0,1,0,8,9,1,1,0,0,0,9,8Zm3.865-6.34-.61.8a6.973,6.973,0,0,1,0,11.09l.61.8a7.978,7.978,0,0,0,0-12.68Z" fill="#fff"/>
	</symbol>
	<use xlink:href="#radio-broadcast" viewBox="0 0 16 16"/>
</svg>
