<!-- This file is part of Zotero. It is distributed under the GNU Affero General Public License version 3. -->
<svg xmlns="http://www.w3.org/2000/svg" xmlns:xlink="http://www.w3.org/1999/xlink">
	<symbol id="tv-broadcast" viewBox="0 0 16 16">
		<rect x="2" y="4" width="12" height="10" fill="#dadada"/>
		<rect x="3.5" y="5.5" width="9" height="6" rx="1.5" fill="#e0efff"/>
		<path d="M14,3H10.707L12.854.854,12.146.146,9.293,3H6.707L3.854.146,3.146.854,5.293,3H2A1,1,0,0,0,1,4V14a1,1,0,0,0,1,1H3a1,1,0,0,0,2,0h6a1,1,0,0,0,2,0h1a1,1,0,0,0,1-1V4A1,1,0,0,0,14,3Zm0,11H2V4H14ZM5,12h6a2,2,0,0,0,2-2V7a2,2,0,0,0-2-2H5A2,2,0,0,0,3,7v3A2,2,0,0,0,5,12ZM4,7A1,1,0,0,1,5,6h6a1,1,0,0,1,1,1v3a1,1,0,0,1-1,1H5a1,1,0,0,1-1-1Z" fill="#444"/>
	</symbol>
	<symbol id="tv-broadcast-white">
		<rect x="3.5" y="5.5" width="9" height="6" rx="1.5" fill="#fff" opacity="0.2"/>
		<path d="M2,4V14H14V4Zm10.5,6A1.5,1.5,0,0,1,11,11.5H5A1.5,1.5,0,0,1,3.5,10V7A1.5,1.5,0,0,1,5,5.5h6A1.5,1.5,0,0,1,12.5,7Z" fill="#fff" opacity="0.4"/>
		<path d="M14,3H10.707L12.854.854,12.146.146,9.293,3H6.707L3.854.146,3.146.854,5.293,3H2A1,1,0,0,0,1,4V14a1,1,0,0,0,1,1H3a1,1,0,0,0,2,0h6a1,1,0,0,0,2,0h1a1,1,0,0,0,1-1V4A1,1,0,0,0,14,3Zm0,11H2V4H14ZM5,12h6a2,2,0,0,0,2-2V7a2,2,0,0,0-2-2H5A2,2,0,0,0,3,7v3A2,2,0,0,0,5,12ZM4,7A1,1,0,0,1,5,6h6a1,1,0,0,1,1,1v3a1,1,0,0,1-1,1H5a1,1,0,0,1-1-1Z" fill="#fff"/>
	</symbol>
	<use xlink:href="#tv-broadcast" viewBox="0 0 16 16"/>
</svg>
