<!-- This file is part of Zotero. It is distributed under the GNU Affero General Public License version 3. -->
<svg xmlns="http://www.w3.org/2000/svg" xmlns:xlink="http://www.w3.org/1999/xlink">
	<symbol id="webpage-snapshot" viewBox="0 0 16 16">
		<rect x="1" y="2" width="13" height="12" fill="#fff"/>
		<rect x="1" y="2" width="13" height="3" opacity="0.04"/>
		<g opacity="0.5">
			<path d="M14,2V14H1V2H14m0-1H1A1,1,0,0,0,0,2V15H15V2a1,1,0,0,0-1-1Z" fill="#fff"/>
		</g>
		<path d="M14,1H1A1,1,0,0,0,0,2V15H15V2A1,1,0,0,0,14,1Zm0,13H1V6H14Zm0-9H1V2H14Z" opacity="0.2"/>
		<rect x="2" y="3" width="1" height="1" fill="#e24940"/>
		<rect x="4" y="3" width="1" height="1" fill="#e0a32a"/>
		<rect x="6" y="3" width="1" height="1" fill="#28ad31"/>
		<rect x="2.5" y="9.5" width="2.5" height="3" fill="#4072e5" opacity="0.4"/>
		<polygon points="5 12 3 12 3 10 5 10 5 9 2 9 2 13 5 13 5 12" fill="#4072e5"/>
		<rect x="6.5" y="8.5" width="9" height="7" rx="0.5" fill="#b4b4b4"/>
		<circle cx="10" cy="12" r="1.5" fill="#dadada"/>
		<path d="M15,9v6H7V9h8m0-1H7A1,1,0,0,0,6,9v6a1,1,0,0,0,1,1h8a1,1,0,0,0,1-1V9a1,1,0,0,0-1-1Zm-5,3a1,1,0,1,1-1,1,1,1,0,0,1,1-1m0-1a2,2,0,1,0,2,2,2,2,0,0,0-2-2Zm3,1h1V10H13Z" fill="#444"/>
	</symbol>
	<symbol id="webpage-snapshot-white">
		<path d="M14,5H1V2H14Zm-2.5,7A1.5,1.5,0,1,0,10,13.5,1.5,1.5,0,0,0,11.5,12Z" fill="#fff" opacity="0.2"/>
		<path d="M5,12.5H2.5v-3H5ZM15.5,9v6a.5.5,0,0,1-.5.5H7a.5.5,0,0,1-.5-.5V9A.5.5,0,0,1,7,8.5h8A.5.5,0,0,1,15.5,9Zm-4,3A1.5,1.5,0,1,0,10,13.5,1.5,1.5,0,0,0,11.5,12Z" fill="#fff" opacity="0.4"/>
		<path d="M3,4H2V3H3ZM5,3H4V4H5ZM7,3H6V4H7ZM5,12H3V10H5V9H2v4H5ZM15,9H7v6h8V9m-5,2a1,1,0,1,0,1,1,1,1,0,0,0-1-1m0-1a2,2,0,1,1-2,2,2,2,0,0,1,2-2Zm3,0h1v1H13ZM6,15H0V2A1,1,0,0,1,1,1H14a1,1,0,0,1,1,1V8h0a1,1,0,0,1,1,1v6a1,1,0,0,1-1,1H7A1,1,0,0,1,6,15ZM6,9A1,1,0,0,1,7,8h7V6H1v8H6ZM1,5H14V2H1Z" fill="#fff"/>
	</symbol>
	<use xlink:href="#webpage-snapshot" viewBox="0 0 16 16"/>
</svg>
