<!-- This file is part of Zotero. It is distributed under the GNU Affero General Public License version 3. -->
<svg xmlns="http://www.w3.org/2000/svg" xmlns:xlink="http://www.w3.org/1999/xlink">
	<symbol id="webpage-linked" viewBox="0 0 16 16">
		<path d="M6,14V13a3,3,0,0,1,3-3h1a2.966,2.966,0,0,1,1.5.409A2.969,2.969,0,0,1,13,10h2V2a1,1,0,0,0-1-1H1A1,1,0,0,0,0,2V15H6Z" fill="#fff" opacity="0.5"/>
		<path d="M9,11.5h1A1.5,1.5,0,0,1,11.5,13,1.5,1.5,0,0,1,13,11.5h1V2H1V14H7.5V13A1.5,1.5,0,0,1,9,11.5Z" fill="#fff"/>
		<rect x="1" y="2" width="13" height="3" opacity="0.04"/>
		<rect x="2" y="3" width="1" height="1" fill="#e24940"/>
		<rect x="4" y="3" width="1" height="1" fill="#e0a32a"/>
		<rect x="6" y="3" width="1" height="1" fill="#28ad31"/>
		<path d="M14,11H13a1.985,1.985,0,0,0-1.5.69A1.985,1.985,0,0,0,10,11H9a2,2,0,0,0-2,2v1a2,2,0,0,0,2,2h1a1.985,1.985,0,0,0,1.5-.69A1.985,1.985,0,0,0,13,16h1a2,2,0,0,0,2-2V13A2,2,0,0,0,14,11Zm-4,4H9a1,1,0,0,1-1-1V13a1,1,0,0,1,1-1h1a1,1,0,0,1,1,1H9.5a.5.5,0,0,0,0,1H11A1,1,0,0,1,10,15Zm5-1a1,1,0,0,1-1,1H13a1,1,0,0,1-1-1h1.5a.5.5,0,0,0,0-1H12a1,1,0,0,1,1-1h1a1,1,0,0,1,1,1Z" fill="#888"/>
		<path d="M6.184,12H3V9h9v1.2a2.937,2.937,0,0,1,1-.2V8H2v5H6A2.966,2.966,0,0,1,6.184,12Z" fill="#4072e5"/>
		<path d="M6,14H1V6H14v4h1V2a1,1,0,0,0-1-1H1A1,1,0,0,0,0,2V15H6ZM1,2H14V5H1Z" opacity="0.2"/>
		<path d="M9,10h1a2.966,2.966,0,0,1,1.5.409,2.959,2.959,0,0,1,1-.342V8.5H2.5v4H6.051A3,3,0,0,1,9,10Z" fill="#4072e5" opacity="0.4"/>
	</symbol>
	<symbol id="webpage-linked-white">
		<rect x="1" y="2" width="13" height="3" fill="#fff" opacity="0.2"/>
		<path d="M9,10h1a2.966,2.966,0,0,1,1.5.409,2.959,2.959,0,0,1,1-.342V8.5H2.5v4H6.051A3,3,0,0,1,9,10Z" fill="#fff" opacity="0.4"/>
		<path d="M14,11H13a1.985,1.985,0,0,0-1.5.69A1.985,1.985,0,0,0,10,11H9a2,2,0,0,0-2,2v1a2,2,0,0,0,2,2h1a1.985,1.985,0,0,0,1.5-.69A1.985,1.985,0,0,0,13,16h1a2,2,0,0,0,2-2V13A2,2,0,0,0,14,11Zm-4,4H9a1,1,0,0,1-1-1V13a1,1,0,0,1,1-1h1a1,1,0,0,1,1,1H9.5a.5.5,0,0,0,0,1H11A1,1,0,0,1,10,15Zm5-1a1,1,0,0,1-1,1H13a1,1,0,0,1-1-1h1.5a.5.5,0,0,0,0-1H12a1,1,0,0,1,1-1h1a1,1,0,0,1,1,1ZM6,3H7V4H6ZM2,3H3V4H2ZM4,3H5V4H4Zm9,5v2a2.937,2.937,0,0,0-1,.2V9H3v3H6.184A2.966,2.966,0,0,0,6,13H2V8ZM1,6H14v4h1V2a1,1,0,0,0-1-1H1A1,1,0,0,0,0,2V15H6V14H1ZM1,2H14V5H1Z" fill="#fff"/>
	</symbol>
	<use xlink:href="#webpage-linked" viewBox="0 0 16 16"/>
</svg>
