<!-- This file is part of Zotero. It is distributed under the GNU Affero General Public License version 3. -->
<svg xmlns="http://www.w3.org/2000/svg" xmlns:xlink="http://www.w3.org/1999/xlink">
	<symbol id="cog" viewBox="0 0 16 16">
		<path fill="currentColor" d="M8.68,1l.139.7.121.6.594.164a5.708,5.708,0,0,1,1.3.535l.536.3.513-.342.589-.393.962.962-.393.589-.342.513.3.536a5.716,5.716,0,0,1,.536,1.3l.164.593.6.121.7.139V8.68l-.7.139-.6.121-.164.593a5.716,5.716,0,0,1-.536,1.3l-.3.536.342.513.393.589-.962.962-.589-.393-.513-.342-.536.3a5.708,5.708,0,0,1-1.3.535L8.94,13.7l-.121.6L8.68,15H7.32l-.139-.7-.121-.6-.594-.164A5.708,5.708,0,0,1,5.169,13l-.536-.3-.513.342-.589.393-.962-.962.393-.589.342-.513L3,10.831a5.716,5.716,0,0,1-.536-1.3L2.3,8.94l-.6-.121L1,8.68V7.32l.7-.139.6-.121.164-.593A5.716,5.716,0,0,1,3,5.169l.3-.536L2.962,4.12l-.393-.589.962-.962.589.393.513.342L5.169,3a5.708,5.708,0,0,1,1.3-.535L7.06,2.3l.121-.6L7.32,1H8.68M8,12A4,4,0,1,0,4,8a4,4,0,0,0,4,4M9.09,0H6.91a.5.5,0,0,0-.49.4L6.2,1.5a6.7,6.7,0,0,0-1.525.63l-.93-.62a.5.5,0,0,0-.631.063L1.572,3.114a.5.5,0,0,0-.062.631l.62.93A6.7,6.7,0,0,0,1.5,6.2L.4,6.42a.5.5,0,0,0-.4.49V9.09a.5.5,0,0,0,.4.49l1.1.22a6.7,6.7,0,0,0,.63,1.525l-.62.93a.5.5,0,0,0,.062.631l1.542,1.542a.5.5,0,0,0,.631.063l.93-.62A6.7,6.7,0,0,0,6.2,14.5l.22,1.1a.5.5,0,0,0,.49.4H9.09a.5.5,0,0,0,.49-.4l.22-1.1a6.7,6.7,0,0,0,1.525-.63l.93.62a.5.5,0,0,0,.631-.062l1.542-1.542a.5.5,0,0,0,.062-.631l-.62-.93A6.7,6.7,0,0,0,14.5,9.8l1.1-.22a.5.5,0,0,0,.4-.49V6.91a.5.5,0,0,0-.4-.49L14.5,6.2a6.7,6.7,0,0,0-.63-1.525l.62-.93a.5.5,0,0,0-.062-.631L12.886,1.572a.5.5,0,0,0-.631-.062l-.93.62A6.7,6.7,0,0,0,9.8,1.5L9.58.4A.5.5,0,0,0,9.09,0ZM8,11a3,3,0,1,1,3-3,3,3,0,0,1-3,3Z"/>
	</symbol>
	<use xlink:href="#cog" viewBox="0 0 16 16"/>
</svg>