<!-- This file is part of Zotero. It is distributed under the GNU Affero General Public License version 3. -->
<svg xmlns="http://www.w3.org/2000/svg" xmlns:xlink="http://www.w3.org/1999/xlink">
	<symbol id="empty-trash" viewBox="0 0 16 16">
		<path fill="currentColor" d="M13,4h1V14.542A1.531,1.531,0,0,1,12.409,16H4.591A1.531,1.531,0,0,1,3,14.542V4H4V14.542A.545.545,0,0,0,4.591,15h7.818A.545.545,0,0,0,13,14.542Zm2-2V3H2V2H5V1A1,1,0,0,1,6,0h5a1,1,0,0,1,1,1V2ZM11,2V1H6V2ZM6.025,12.682,8.5,10.207l2.475,2.475.707-.707L9.207,9.5l2.475-2.475-.707-.707L8.5,8.793,6.025,6.318l-.707.707L7.793,9.5,5.318,11.975Z"/>
	</symbol>
	<use xlink:href="#empty-trash" viewBox="0 0 16 16"/>
</svg>

