<!-- This file is part of Zotero. It is distributed under the GNU Affero General Public License version 3. -->
<svg xmlns="http://www.w3.org/2000/svg" xmlns:xlink="http://www.w3.org/1999/xlink">
	<symbol id="folder" viewBox="0 0 16 16">
		<path fill="currentColor" d="M15,3H9L8.276,1.553C8.107,1.214,7.761,1,7.382,1H3.618C3.239,1,2.893,1.214,2.724,1.553L2,3H1C0.448,3,0,3.448,0,4v2v8c0,0.552,0.448,1,1,1h14c0.552,0,1-0.448,1-1V6V4C16,3.448,15.552,3,15,3z M15,14H1V6h14V14z M1,5V4h1c0.379,0,0.725-0.214,0.894-0.553L3.618,2h3.764v0l0.724,1.447C8.275,3.786,8.621,4,9,4h6v1H1z"/>
	</symbol>
	<symbol id="folder-block">
		<path fill="currentColor" d="M0,5V4A1,1,0,0,1,1,3H2l.724-1.447A1,1,0,0,1,3.618,1H7.382a1,1,0,0,1,.894.553L9,3h6a1,1,0,0,1,1,1V5ZM0,6v8a1,1,0,0,0,1,1H15a1,1,0,0,0,1-1V6Z"/>
	</symbol>
	<use xlink:href="#folder" viewBox="0 0 16 16"/>
</svg>
