<!-- This file is part of Zotero. It is distributed under the GNU Affero General Public License version 3. -->
<svg xmlns="http://www.w3.org/2000/svg" xmlns:xlink="http://www.w3.org/1999/xlink">
	<symbol id="tag" viewBox="0 0 16 16">
		<path fill="currentColor" d="M6.086,1l8.5,8.5L9.5,14.586,1,6.086V1H6.086M6.5,0H.5A.5.5,0,0,0,0,.5v6l9.146,9.146a.5.5,0,0,0,.707,0l5.793-5.793a.5.5,0,0,0,0-.707L6.5,0ZM4,2.75A1.25,1.25,0,1,0,5.25,4,1.25,1.25,0,0,0,4,2.75Z"/>
	</symbol>
	<symbol id="tag-block" viewBox="0 0 16 16">
		<path fill="currentColor" d="m15.7 9.03-8.73-8.73c-0.192-0.192-0.454-0.3-0.726-0.3h-5.22c-0.272 0-0.533 0.108-0.726 0.301-0.193 0.192-0.301 0.454-0.301 0.726v5.22c0 0.272 0.108 0.533 0.3 0.726l8.73 8.73c0.401 0.401 1.05 0.401 1.45 0l5.22-5.22c0.401-0.401 0.401-1.05 0-1.45zm-11.6-3.55c-0.553 0-1.05-0.334-1.26-0.845-0.212-0.511-0.0949-1.1 0.297-1.49 0.391-0.392 0.98-0.509 1.49-0.297 0.511 0.212 0.845 0.711 0.845 1.26 0 0.363-0.144 0.711-0.401 0.968-0.257 0.257-0.605 0.401-0.968 0.401z"/>
	</symbol>
	<use xlink:href="#tag" viewBox="0 0 16 16"/>
</svg>
